<svg height="478pt" viewBox="0 -89 478.91972 478" width="478pt" xmlns="http://www.w3.org/2000/svg"><path d="m471.386719 7.988281c7.355469 7.351563 9.554687 18.410157 5.574219 28.019531-3.980469 9.605469-13.355469 15.867188-23.757813 15.863282h-427.5c-14.195313 0-25.703125-11.507813-25.703125-25.707032 0-14.195312 11.507812-25.703124 25.703125-25.703124h427.5c6.824219-.007813 13.363281 2.699218 18.183594 7.527343zm0 0" fill="#00acea"/><path d="m239.453125 171.429688-29.277344-29.28125-90.179687-90.179688v-.097656h58.480468v.019531l60.976563 60.988281 29.273437 29.269532 128.519532 128.519531-29.269532 29.273437zm0 0" fill="#fedb41"/><g fill="#00efd1"><path d="m359.015625 51.871094-90.191406 90.179687-.097657.097657-29.273437-29.269532.101563-.097656 60.898437-60.910156zm0 0"/><path d="m210.175781 142.148438 29.277344 29.28125-128.519531 128.511718-29.269532-29.273437zm0 0"/></g></svg>