<svg id="Capa_1" enable-background="new 0 0 512 512" height="512" viewBox="0 0 512 512" width="512" xmlns="http://www.w3.org/2000/svg"><g><path d="m477.5 181.67c0 17.12-3.33 35.48-11.06 50.6-43.99 86.09-125.31 137.17-219.04 144-57.47 4.2-119.6-8.23-180.64-39.42-20.53-10.49-37.68-26.26-49.47-45.22l48.79-95.78c19.19 1.33 37.49 6.5 55.95 13.02 22.4 7.11 45.42 10.58 68.27 10.58 19.31 0 38.5-2.48 57.1-7.34 33.3-8.7 64.69-25.02 91.46-48.4 22.49-19.64 48.73-34.51 77.14-43.71l56.99 29.12c2.89 9.24 4.51 20.59 4.51 32.55z" fill="#febd4e"/><path d="m69.351 257.921c10.469-20.49 8.437-44.073-3.273-62.066-16.311-1.123-33.265.531-51.512 6.52l-14.56 28.496c-.232 21.955 6.115 42.79 17.285 60.76 21.387-1.105 41.616-13.268 52.06-33.71z" fill="#653e52"/><path d="m512 197.03c0 143.04-107.65 254.98-264.6 272.56-14.19 1.59-28.79 2.41-43.74 2.41-23.05 0-45.5-6.24-64.62-17.76l-.13-107.48c17.69-7.56 36.34-11.28 55.75-13.87 18.38-3.06 36.06-8.34 52.74-15.57 18.64-8.09 36.02-18.63 51.72-31.26 29.74-23.94 53.42-55.42 68.07-92.04 11.09-27.72 27.7-52.91 48.81-74.02l32-12.52 32 12.52c8.24 8.41 16.24 20.46 22.18 34.01s9.82 28.61 9.82 43.02z" fill="#fede51"/><path d="m170.06 400.537c0-23.009-12.539-43.085-31.154-53.781-15.036 6.421-29.381 15.608-42.905 29.244v32c9.782 19.657 24.914 35.323 43.037 46.242 18.542-10.714 31.022-30.75 31.022-53.705z" fill="#7f4e67"/><path d="m480 120h-64l-6.373-80h76.747z" fill="#5db24e"/></g><path d="m448 107.48v262.579c40.703-46.708 64-106.501 64-173.029 0-14.41-3.88-29.47-9.82-43.02s-13.94-25.6-22.18-34.01z" fill="#febd4e"/><path d="m448 120h32l6.374-80h-38.374z" fill="#429843"/></svg>