<svg id="Capa_1" enable-background="new 0 0 510.638 510.638" height="512" viewBox="0 0 510.638 510.638" width="512" xmlns="http://www.w3.org/2000/svg"><g><g><path d="m256.445 190.42h35.885c95.366 0 113.032 160.243 0 160.243h-49.923c-152.711 0-142.687-160.243-142.687-160.243h66.227" fill="#c5d3de"/><path d="m352.625 217.093h23.864c21.332 0 49.707-18.997 37.428-50.392-5.604-14.328-10.373-34.902-10.738-59.596-.495-33.494 8.175-59.655 14.346-74.464 0 0 17.079-38.94 49.187-10.247l32.984 40.119-49.379.187s-14.773 49.187 6.405 88.81 2.862 118.218-86.631 110.703" fill="#ffebc3"/></g><g><path d="m63.663 205.076c4.366-3.381 5.165-9.663 1.783-14.029-3.382-4.367-9.663-5.165-14.029-1.783-9.81 7.597-18.853 16.232-26.879 25.666-10.808 12.703-22.788 34.057-23.292 34.959-2.479 4.436-1.148 10.19 3.022 13.089 4.786 3.327 11.593 1.751 14.435-3.329.114-.204 11.537-20.557 21.068-31.76 7.133-8.384 15.171-16.06 23.892-22.813z"/><path d="m56.974 242.64c-4.962 4.965-9.42 10.46-13.251 16.331-4.378 6.71-7.963 13.946-10.653 21.506-1.754 4.927.71 10.519 5.521 12.559 5.229 2.217 11.419-.509 13.321-5.853 2.163-6.077 5.043-11.892 8.562-17.284 3.078-4.717 6.66-9.132 10.647-13.122 3.904-3.907 3.902-10.238-.004-14.142-3.907-3.903-10.239-3.901-14.143.005z"/><path d="m153.319 222.72c-5.523 0-10 4.477-10 10 0 46.22 44.743 83.822 99.74 83.822 5.523 0 10-4.477 10-10s-4.477-10-10-10c-43.969 0-79.74-28.63-79.74-63.822 0-5.523-4.477-10-10-10z"/><path d="m322.513 297.82c.47.065.937.098 1.398.098 4.908 0 9.192-3.617 9.891-8.617 2.203-15.756-1.861-31.427-11.444-44.126-9.583-12.7-23.538-20.907-39.294-23.111-5.468-.765-10.524 3.049-11.289 8.519-.765 5.469 3.049 10.523 8.519 11.289 10.465 1.463 19.734 6.915 26.1 15.35 6.365 8.435 9.064 18.844 7.601 29.309-.766 5.47 3.048 10.524 8.518 11.289z"/><path d="m508.42 56.161-32.983-40.119c-.325-.396-.68-.765-1.062-1.106-12.063-10.78-24.174-14.94-35.994-12.372-18.893 4.108-28.034 23.824-29.014 26.059-.025.057-.049.113-.073.17-10.429 25.027-15.514 51.424-15.115 78.458.336 22.708 4.393 45.114 11.424 63.091 3.481 8.899 2.976 16.737-1.501 23.295-6.03 8.833-17.953 13.454-26.614 13.454h-23.132c-16.114-17.24-37.943-26.672-62.027-26.672h-35.885c-5.523 0-10 4.477-10 10s4.477 10 10 10h35.885c25.366 0 41.238 12.7 50.086 23.354 11.568 13.928 18.203 32.82 18.203 51.832 0 17.693-5.759 33.723-16.218 45.137-11.94 13.032-29.946 19.92-52.071 19.92h-49.923c-40.801 0-72.881-12.098-95.349-35.958-32.053-34.04-36.854-83.77-37.398-104.285h56.286c5.523 0 10-4.477 10-10s-4.477-10-10-10h-66.226c-5.28 0-9.651 4.105-9.98 9.375-.199 3.182-4.333 78.49 42.654 128.508 15.448 16.445 34.534 28.138 57.039 35.018l-26.612 18.435c-2.697 1.868-4.306 4.94-4.306 8.22v62.361l-70.457 48.257c-4.127 2.827-5.537 8.471-3.203 12.901 2.748 5.218 9.632 6.937 14.505 3.6l74.806-51.236c2.722-1.864 4.349-4.951 4.349-8.25v-62.395l37.786-26.176c8.336 1.077 17.037 1.624 26.107 1.624h40.101v66.114c0 5.523 4.477 10 10 10h83.551l29.924 27.427c4.304 3.944 11.267 3.283 14.765-1.385 3.041-4.058 2.485-9.934-1.251-13.359l-32.792-30.055c-1.844-1.69-4.255-2.628-6.757-2.628h-77.44v-56.535c23.34-1.976 42.78-10.858 56.641-25.987 13.846-15.112 21.471-35.94 21.471-58.648 0-.975-.036-1.949-.064-2.924.661.009 1.324.021 1.981.021 34.89 0 62.622-13.25 78.89-37.979 16.929-25.734 19.032-61.891 5.116-87.929-14.452-27.039-10.191-59.921-7.319-74.126l41.512-.157c8.249-.03 12.938-9.96 7.684-16.35zm-57.142-3.462c-4.401.017-8.273 2.909-9.539 7.124-.652 2.17-15.697 53.631 7.163 96.401 8.96 16.765 10.4 45.337-4.186 67.509-9.364 14.234-28.489 30.382-66.724 28.878-2.039-8.937-5.239-17.557-9.468-25.518h8.965c16.743 0 34.076-8.913 43.132-22.178 8.191-12 9.473-26.864 3.609-41.857-3.58-9.152-9.646-28.611-10.052-56.102-.353-23.889 4.322-48.206 13.523-70.338 1.634-3.575 7.387-12.91 14.986-14.522 5.052-1.072 11.043 1.37 17.808 7.264l19.1 23.232z"/><circle cx="443.029" cy="489.513" r="10"/><circle cx="210.695" cy="190.346" r="10"/></g></g></svg>