<?xml version="1.0" standalone="no"?>
<!DOCTYPE svg PUBLIC "-//W3C//DTD SVG 20010904//EN"
 "http://www.w3.org/TR/2001/REC-SVG-20010904/DTD/svg10.dtd">
<svg version="1.0" xmlns="http://www.w3.org/2000/svg"
 width="200.000000pt" height="200.000000pt" viewBox="0 0 200.000000 200.000000"
 preserveAspectRatio="xMidYMid meet">

<g transform="translate(0.000000,200.000000) scale(0.100000,-0.100000)"
fill="#000000" stroke="none">
<path d="M108 1675 c-16 -35 0 -79 30 -83 22 -3 22 -6 22 -163 0 -170 5 -192
52 -237 71 -66 531 -77 651 -15 56 28 67 63 67 214 0 116 2 138 16 143 27 10
99 7 112 -6 8 -8 12 -54 12 -142 0 -186 18 -210 170 -237 41 -7 140 -13 220
-12 171 1 291 21 328 55 47 45 52 66 52 238 0 152 1 160 20 160 34 0 55 71 28
98 -9 9 -220 12 -890 12 l-878 0 -12 -25z m992 -50 l0 -45 -105 0 -105 0 0 45
0 45 105 0 105 0 0 -45z m-321 -6 c17 -6 36 -19 41 -29 6 -10 10 -78 10 -150
0 -137 -10 -179 -48 -199 -38 -20 -175 -34 -285 -28 -133 7 -175 18 -208 53
-23 24 -24 34 -27 157 -3 143 4 172 48 194 33 17 423 18 469 2z m933 -17 c22
-21 23 -30 23 -166 0 -139 -1 -145 -24 -170 -33 -35 -75 -46 -207 -53 -153 -8
-268 10 -306 48 -28 27 -28 28 -28 171 0 154 8 182 53 191 12 3 122 4 244 3
217 -1 223 -2 245 -24z"/>
<path d="M460 689 c0 -12 7 -49 16 -83 16 -60 15 -137 -2 -258 -6 -41 -4 -48
11 -48 36 0 321 105 343 127 16 16 22 34 22 66 0 71 -20 87 -196 156 -172 67
-194 72 -194 40z"/>
<path d="M1340 649 c-87 -33 -163 -69 -172 -80 -27 -32 -24 -111 5 -142 24
-26 314 -133 339 -125 10 4 13 38 13 144 0 76 4 167 9 202 9 61 9 62 -15 61
-13 0 -94 -27 -179 -60z"/>
<path d="M900 581 c-5 -11 -10 -53 -10 -95 0 -94 13 -106 110 -106 99 0 110
11 110 114 0 50 -5 87 -12 94 -8 8 -45 12 -100 12 -76 0 -89 -2 -98 -19z"/>
</g>
</svg>
