<?xml version="1.0" standalone="no"?>
<!DOCTYPE svg PUBLIC "-//W3C//DTD SVG 20010904//EN"
 "http://www.w3.org/TR/2001/REC-SVG-20010904/DTD/svg10.dtd">
<svg version="1.0" xmlns="http://www.w3.org/2000/svg"
 width="536.000000pt" height="465.000000pt" viewBox="0 0 536.000000 465.000000"
 preserveAspectRatio="xMidYMid meet">

<g transform="translate(0.000000,465.000000) scale(0.100000,-0.100000)"
fill="#000000" stroke="none">
<path d="M1177 4641 l-67 -6 -30 -62 -29 -63 73 0 c43 0 78 5 88 13 13 10 58
105 58 121 0 3 -6 5 -12 4 -7 -1 -43 -4 -81 -7z"/>
<path d="M1475 4428 c-27 -5 -64 -11 -80 -13 -26 -4 -33 -12 -49 -58 -10 -28
-25 -67 -33 -85 -9 -18 -14 -34 -12 -36 4 -4 101 9 172 22 36 7 40 11 68 77
45 107 45 105 12 104 -15 -1 -50 -6 -78 -11z"/>
<path d="M999 4210 c-62 -8 -79 -15 -79 -33 -1 -7 -9 -30 -20 -52 l-19 -40 76
-3 c41 -2 77 -1 79 1 2 2 15 33 29 70 28 76 34 70 -66 57z"/>
<path d="M1780 4139 c-74 -4 -137 -7 -140 -8 -4 0 -12 -18 -19 -38 -16 -46
-48 -122 -61 -145 -6 -10 -10 -21 -10 -24 0 -4 62 -4 137 -1 117 5 138 9 147
24 16 27 88 195 84 197 -2 0 -64 -2 -138 -5z"/>
<path d="M2107 4013 c-101 -3 -119 -6 -124 -21 -6 -17 -35 -87 -53 -127 -5
-11 -18 -42 -30 -70 -11 -27 -25 -58 -31 -68 -6 -11 -9 -21 -7 -23 2 -2 44 1
93 6 50 5 129 10 176 10 l85 0 18 43 c10 23 25 56 32 72 7 17 20 48 28 70 8
22 21 57 30 78 l16 37 -57 -2 c-32 -1 -111 -4 -176 -5z"/>
<path d="M1345 4005 c-5 -1 -43 -9 -84 -16 -71 -12 -74 -14 -88 -48 -25 -64
-44 -106 -54 -125 -10 -18 -8 -18 33 -12 23 4 72 10 107 15 72 8 72 8 113 119
l27 72 -22 -1 c-12 0 -26 -2 -32 -4z"/>
<path d="M2550 3849 c-189 -14 -187 -14 -211 -67 -11 -26 -24 -56 -29 -67 -5
-11 -21 -49 -35 -85 -15 -36 -33 -80 -41 -98 -9 -19 -13 -36 -11 -39 3 -2 36
0 74 6 37 5 128 13 202 17 l133 7 20 46 c11 25 26 62 34 81 9 19 19 44 24 55
5 11 18 43 30 70 11 28 25 58 30 68 9 15 4 17 -52 16 -35 -1 -110 -5 -168 -10z"/>
<path d="M3195 3809 c-38 -4 -136 -11 -218 -14 l-147 -7 -7 -27 c-6 -23 -27
-78 -53 -136 -21 -45 -80 -194 -80 -200 0 -8 75 -4 288 15 l153 14 20 45 c11
25 27 62 35 81 9 19 19 44 24 55 5 11 18 43 30 70 18 43 34 79 48 108 2 4 -3
6 -10 6 -7 -1 -44 -5 -83 -10z"/>
<path d="M3340 3773 c-12 -27 -30 -70 -41 -98 -11 -27 -24 -59 -29 -70 -5 -11
-19 -44 -30 -73 -11 -29 -34 -83 -51 -120 -45 -100 -45 -100 -89 -204 -22 -53
-40 -99 -40 -102 0 -3 -11 -29 -24 -58 -14 -29 -41 -93 -61 -143 -20 -49 -40
-99 -45 -110 -5 -11 -25 -60 -45 -110 -20 -49 -40 -99 -45 -110 -5 -11 -28
-67 -50 -125 -22 -58 -45 -114 -50 -125 -8 -17 -60 -147 -60 -149 0 -1 82 -1
183 -2 207 -1 319 -16 502 -66 44 -12 50 -17 48 -38 0 -14 -15 -54 -31 -90
-16 -36 -33 -76 -37 -90 -4 -14 -11 -29 -15 -35 -3 -5 -15 -32 -25 -60 -16
-45 -41 -106 -65 -160 -5 -11 -39 -92 -75 -180 -36 -88 -70 -169 -75 -180 -5
-11 -14 -32 -20 -47 -11 -33 -22 -34 -123 -13 -179 36 -399 57 -545 53 l-103
-3 -40 -100 c-22 -55 -44 -109 -49 -120 -5 -11 -15 -36 -24 -55 -8 -19 -24
-57 -35 -84 -12 -27 -20 -50 -18 -52 1 -2 63 2 137 7 206 16 485 -9 644 -56
26 -8 55 -15 62 -15 8 0 22 -4 32 -9 9 -5 46 -19 82 -32 36 -12 70 -25 75 -29
6 -4 21 -11 35 -15 93 -27 445 -233 495 -289 6 -6 23 -19 38 -29 45 -29 182
-152 299 -270 102 -101 109 -106 117 -85 12 32 110 268 121 293 17 37 47 110
60 145 7 19 23 58 35 85 13 28 44 102 69 165 42 104 58 142 86 205 5 11 25 61
45 110 20 50 47 114 61 143 13 29 24 56 24 60 1 4 9 25 20 47 11 22 19 44 20
48 0 7 23 62 50 122 5 11 19 45 30 75 11 30 25 64 30 75 5 11 18 43 30 70 12
28 25 59 30 70 5 11 18 43 30 70 40 93 51 120 60 140 5 11 21 52 35 90 14 39
29 79 35 90 5 11 18 43 30 70 12 28 25 59 30 70 5 11 18 43 30 70 12 28 25 59
30 70 28 63 50 117 69 170 12 33 26 69 31 80 5 11 18 43 30 70 12 28 25 59 30
70 18 39 47 110 53 127 4 11 -23 45 -91 115 -131 132 -186 179 -336 290 -39
29 -76 56 -81 61 -15 12 -224 134 -265 154 -207 101 -397 167 -590 204 -41 7
-97 18 -125 24 -56 11 -384 40 -457 40 -47 0 -47 -1 -68 -47z m1095 -610 c80
-41 255 -152 255 -162 0 -4 12 -14 28 -24 15 -9 48 -36 74 -61 l47 -44 -30
-74 c-17 -40 -34 -82 -39 -93 -26 -61 -44 -102 -91 -220 -28 -71 -60 -149 -70
-172 -11 -23 -19 -49 -19 -57 0 -9 -4 -16 -10 -16 -5 0 -10 -5 -10 -10 0 -8
-59 -155 -113 -282 l-11 -27 -26 27 c-21 23 -81 73 -138 117 -7 6 -18 15 -25
20 -35 30 -192 115 -212 115 -3 0 -55 21 -115 46 l-108 45 14 37 c9 20 22 51
30 69 8 17 14 34 14 38 0 5 17 46 50 120 5 11 39 92 75 180 36 88 70 169 75
180 27 62 50 116 68 165 11 30 31 81 45 112 l26 58 73 -26 c40 -14 105 -42
143 -61z m-681 -1162 c3 -5 23 -12 43 -16 21 -4 43 -10 48 -15 6 -4 27 -13 47
-19 54 -18 229 -114 265 -146 6 -5 26 -21 44 -35 18 -14 55 -45 81 -69 51 -47
52 -50 23 -116 -8 -16 -30 -70 -50 -120 -19 -49 -40 -99 -45 -110 -27 -61 -50
-115 -50 -120 0 -5 -18 -48 -50 -120 -5 -11 -25 -60 -45 -110 -20 -49 -40 -99
-45 -110 -16 -36 -38 -89 -54 -128 -17 -43 -24 -42 -86 13 -59 52 -306 210
-329 210 -6 0 -11 5 -11 10 0 6 -6 10 -12 10 -7 0 -39 14 -72 30 -32 17 -76
35 -98 41 -28 7 -37 14 -30 22 5 7 15 30 22 52 7 22 16 45 20 50 3 6 15 33 25
60 16 45 39 103 65 160 5 11 18 43 30 70 12 28 25 59 30 70 27 60 51 120 85
205 20 52 42 109 50 125 7 17 21 49 31 73 13 32 23 42 40 42 13 0 25 -4 28 -9z"/>
<path d="M744 3753 c-9 -27 -21 -52 -26 -57 -18 -21 -5 -26 71 -26 l79 0 13
38 c6 20 15 42 19 47 4 6 10 18 13 28 6 15 -2 17 -72 17 l-79 0 -18 -47z"/>
<path d="M1655 3710 c-33 -4 -93 -8 -132 -9 -46 -1 -73 -5 -73 -12 0 -6 -7
-25 -15 -42 -22 -49 -55 -137 -55 -147 0 -6 46 -10 109 -10 117 0 171 7 171
22 0 5 9 30 21 56 11 26 26 61 34 77 24 55 27 75 13 74 -7 -1 -40 -5 -73 -9z"/>
<path d="M1177 3590 c-15 -5 -57 -12 -93 -16 l-66 -7 -29 -64 c-16 -36 -32
-77 -36 -91 -6 -25 -6 -25 43 -18 27 4 74 10 105 13 l56 5 36 87 c21 47 37 90
37 94 0 9 -16 8 -53 -3z"/>
<path d="M1885 3572 l-80 -3 -53 -132 c-77 -189 -77 -171 -1 -163 35 4 114 9
175 13 l111 6 18 41 c10 23 26 61 37 86 10 25 23 54 28 65 5 11 16 37 24 58
l15 37 -97 -2 c-53 -1 -133 -4 -177 -6z"/>
<path d="M2370 3415 c-173 -11 -200 -16 -200 -37 0 -5 -6 -24 -14 -41 -12 -25
-92 -212 -112 -262 -5 -12 331 8 387 22 29 8 36 17 57 69 13 32 30 73 38 91 7
17 14 34 14 38 0 7 36 92 50 118 12 20 34 19 -220 2z"/>
<path d="M2950 3380 c-52 -4 -139 -11 -194 -15 l-98 -8 -15 -36 c-7 -20 -18
-45 -23 -56 -19 -41 -48 -112 -71 -170 -12 -33 -27 -64 -31 -70 -4 -5 -8 -15
-8 -23 0 -15 24 -15 292 8 145 12 158 15 164 34 3 12 12 35 20 51 7 17 31 77
54 135 22 58 45 113 50 122 6 10 10 22 10 28 0 11 -1 11 -150 0z"/>
<path d="M670 3373 c-91 -7 -89 -6 -131 -110 -8 -23 -7 -23 71 -23 l79 0 21
47 c30 67 35 93 19 91 -8 -1 -34 -3 -59 -5z"/>
<path d="M1334 3293 l-51 -4 -23 -57 c-13 -31 -31 -76 -41 -99 -11 -23 -19
-44 -19 -47 0 -4 62 -6 138 -6 l138 0 18 43 c10 23 24 56 32 72 7 17 20 47 28
68 l15 37 -92 -2 c-51 -1 -115 -3 -143 -5z"/>
<path d="M1005 3165 c-5 -2 -46 -9 -89 -16 -54 -9 -80 -18 -83 -29 -2 -8 -19
-46 -37 -85 -18 -38 -33 -71 -32 -72 4 -5 216 22 216 28 0 4 16 41 35 82 19
41 35 80 35 86 0 10 -23 13 -45 6z"/>
<path d="M1724 3163 l-90 -4 -13 -37 c-12 -33 -37 -93 -61 -147 -19 -42 -40
-98 -40 -106 0 -12 47 -11 213 3 136 11 139 12 148 37 5 14 14 35 19 46 5 11
18 43 30 70 12 28 25 59 30 70 5 11 14 32 20 48 l10 27 -88 -2 c-48 -1 -128
-4 -178 -5z"/>
<path d="M2285 3010 c-44 -5 -124 -11 -178 -15 l-98 -8 -18 -41 c-10 -23 -24
-57 -31 -76 -14 -37 -35 -89 -65 -158 -10 -23 -15 -45 -12 -49 8 -7 365 13
389 22 15 6 24 24 70 135 11 25 23 54 28 65 30 69 50 119 50 126 0 10 -15 10
-135 -1z"/>
<path d="M2740 2950 c-63 -4 -147 -8 -186 -9 l-70 -1 -34 -82 c-18 -46 -42
-103 -52 -128 -11 -25 -26 -61 -34 -80 -8 -19 -19 -43 -24 -52 -6 -10 -10 -21
-10 -24 0 -9 277 6 375 20 l80 11 23 60 c13 33 34 83 46 110 13 28 27 61 31
75 4 14 11 30 15 35 4 6 12 25 18 43 l11 32 -37 -2 c-20 -1 -89 -5 -152 -8z"/>
<path d="M1220 2867 l-116 -9 -39 -96 c-22 -53 -41 -99 -43 -104 -4 -9 161 -9
232 0 52 7 53 9 86 87 12 28 28 64 36 82 8 17 14 36 14 42 0 12 -4 12 -170 -2z"/>
<path d="M1528 2733 c-52 -3 -78 -8 -78 -16 0 -7 -6 -23 -13 -37 -7 -14 -21
-47 -31 -75 -23 -61 -53 -134 -66 -157 -8 -15 0 -16 88 -12 53 3 134 7 180 10
l82 6 20 43 c11 24 20 47 20 50 0 5 26 67 50 120 5 11 14 32 20 48 l10 27
-103 -2 c-56 -1 -137 -4 -179 -5z"/>
<path d="M2239 2595 c-3 -2 -72 -9 -155 -15 -82 -6 -172 -13 -200 -16 l-51 -5
-31 -67 c-17 -37 -40 -91 -52 -121 -12 -30 -30 -74 -41 -99 -11 -24 -19 -45
-17 -47 2 -2 91 3 198 10 107 8 200 14 206 15 6 0 17 15 24 33 7 17 19 46 26
62 7 17 22 53 34 80 11 28 25 58 30 67 6 10 10 23 10 30 0 7 7 26 15 42 14 26
16 43 4 31z"/>
<path d="M2493 2517 c-184 -9 -193 -10 -199 -31 -3 -11 -15 -41 -26 -66 -11
-25 -25 -58 -32 -75 -8 -16 -22 -52 -32 -80 -10 -27 -24 -61 -31 -75 -23 -44
-17 -50 45 -50 31 0 84 4 117 9 33 5 106 13 161 16 l101 7 33 71 c36 79 45 98
89 206 17 40 31 75 31 77 0 2 -15 3 -32 2 -18 -1 -119 -6 -225 -11z"/>
<path d="M2340 2100 c-63 -4 -138 -10 -166 -14 -51 -7 -51 -8 -74 -64 -26 -64
-56 -137 -70 -167 -16 -34 -50 -129 -50 -139 0 -4 15 -5 34 -2 19 4 118 13
220 21 186 13 206 17 206 37 0 5 7 24 15 41 7 18 33 79 56 137 23 58 48 117
55 133 l15 27 -63 -2 c-35 0 -115 -4 -178 -8z"/>
<path d="M94 2093 c-42 -4 -48 -11 -83 -105 l-11 -28 79 0 79 0 12 36 c7 20
18 48 26 62 8 15 14 30 14 35 0 7 -37 7 -116 0z"/>
<path d="M435 1884 c-11 -3 -46 -9 -77 -16 -32 -6 -58 -15 -58 -20 0 -6 -6
-24 -14 -41 -22 -49 -46 -109 -46 -116 0 -4 26 -3 58 1 31 4 78 11 105 14 45
5 48 7 68 52 11 26 27 61 35 79 8 17 14 36 14 42 0 11 -44 13 -85 5z"/>
<path d="M2110 1660 c-63 -4 -125 -8 -137 -9 -23 -1 -35 -21 -73 -121 -11 -30
-25 -64 -30 -75 -5 -11 -18 -42 -30 -70 -20 -47 -38 -88 -49 -109 -2 -5 15 -6
40 -2 24 3 127 13 228 21 101 8 185 16 186 17 2 2 23 53 48 113 25 61 57 136
71 167 14 31 26 62 26 67 0 12 -90 12 -280 1z"/>
<path d="M638 1593 c-54 -4 -59 -6 -72 -36 -31 -69 -75 -181 -73 -184 2 -1 66
1 142 5 l139 7 43 100 c23 55 42 103 43 108 0 7 -107 7 -222 0z"/>
<path d="M1067 1463 c-120 -3 -139 -6 -144 -21 -3 -9 -14 -35 -23 -57 -9 -22
-23 -56 -30 -75 -7 -19 -24 -59 -37 -89 -13 -29 -22 -55 -20 -58 2 -2 82 0
177 4 l173 8 24 65 c13 36 28 74 33 85 14 32 47 108 53 128 5 14 1 17 -31 15
-20 -1 -99 -4 -175 -5z"/>
<path d="M1642 1310 c-30 -5 -118 -11 -196 -15 l-143 -7 -48 -117 c-26 -64
-58 -140 -71 -170 l-24 -54 102 7 c57 3 151 11 210 17 l107 11 16 37 c9 20 20
45 25 56 5 11 25 61 45 110 20 50 40 98 45 107 18 32 21 31 -68 18z"/>
<path d="M1940 1230 c-63 -4 -127 -8 -142 -9 -22 -1 -31 -10 -48 -45 -11 -25
-20 -48 -20 -51 0 -4 -7 -21 -14 -38 -8 -18 -33 -77 -55 -132 -32 -79 -37
-101 -26 -103 8 -2 70 2 137 8 68 6 160 15 206 19 46 4 87 12 91 17 5 5 16 32
26 59 10 28 22 55 26 60 4 6 17 35 29 65 26 68 48 120 61 143 8 16 2 17 -73
15 -46 -1 -135 -5 -198 -8z"/>
</g>
</svg>
