<?xml version="1.0" standalone="no"?>
<!DOCTYPE svg PUBLIC "-//W3C//DTD SVG 20010904//EN"
 "http://www.w3.org/TR/2001/REC-SVG-20010904/DTD/svg10.dtd">
<svg version="1.0" xmlns="http://www.w3.org/2000/svg"
 width="612.000000pt" height="408.000000pt" viewBox="0 0 612.000000 408.000000"
 preserveAspectRatio="xMidYMid meet">

<g transform="translate(0.000000,408.000000) scale(0.100000,-0.100000)"
fill="#000000" stroke="none">
<path d="M3018 4053 c17 -2 47 -2 65 0 17 2 3 4 -33 4 -36 0 -50 -2 -32 -4z"/>
<path d="M2823 4043 c9 -2 23 -2 30 0 6 3 -1 5 -18 5 -16 0 -22 -2 -12 -5z"/>
<path d="M3241 4045 c3 -2 30 -7 60 -9 39 -4 46 -3 24 3 -33 10 -91 14 -84 6z"/>
<path d="M2768 4033 c6 -2 18 -2 25 0 6 3 1 5 -13 5 -14 0 -19 -2 -12 -5z"/>
<path d="M2680 4020 c0 -5 7 -7 15 -4 8 4 15 8 15 10 0 2 -7 4 -15 4 -8 0 -15
-4 -15 -10z"/>
<path d="M3415 4020 c11 -5 27 -9 35 -9 9 0 8 4 -5 9 -11 5 -27 9 -35 9 -9 0
-8 -4 5 -9z"/>
<path d="M2570 4000 c-8 -5 -10 -10 -5 -10 6 0 17 5 25 10 8 5 11 10 5 10 -5
0 -17 -5 -25 -10z"/>
<path d="M3500 4006 c0 -2 7 -7 16 -10 8 -3 12 -2 9 4 -6 10 -25 14 -25 6z"/>
<path d="M2470 3970 c-8 -5 -10 -10 -5 -10 6 0 17 5 25 10 8 5 11 10 5 10 -5
0 -17 -5 -25 -10z"/>
<path d="M2400 3950 c-8 -5 -10 -10 -5 -10 6 0 17 5 25 10 8 5 11 10 5 10 -5
0 -17 -5 -25 -10z"/>
<path d="M3680 3950 c8 -5 20 -10 25 -10 6 0 3 5 -5 10 -8 5 -19 10 -25 10 -5
0 -3 -5 5 -10z"/>
<path d="M3740 3930 c8 -5 20 -10 25 -10 6 0 3 5 -5 10 -8 5 -19 10 -25 10 -5
0 -3 -5 5 -10z"/>
<path d="M3880 3876 c0 -2 7 -7 16 -10 8 -3 12 -2 9 4 -6 10 -25 14 -25 6z"/>
<path d="M3920 3856 c0 -2 7 -7 16 -10 8 -3 12 -2 9 4 -6 10 -25 14 -25 6z"/>
<path d="M2114 3824 c-18 -14 -18 -15 4 -4 12 6 22 13 22 15 0 8 -5 6 -26 -11z"/>
<path d="M2873 3783 c9 -2 23 -2 30 0 6 3 -1 5 -18 5 -16 0 -22 -2 -12 -5z"/>
<path d="M3213 3783 c9 -2 23 -2 30 0 6 3 -1 5 -18 5 -16 0 -22 -2 -12 -5z"/>
<path d="M1990 3755 c-14 -8 -20 -14 -14 -15 5 0 19 7 30 15 24 18 16 19 -16
0z"/>
<path d="M2728 3763 c7 -3 16 -2 19 1 4 3 -2 6 -13 5 -11 0 -14 -3 -6 -6z"/>
<path d="M3368 3763 c7 -3 16 -2 19 1 4 3 -2 6 -13 5 -11 0 -14 -3 -6 -6z"/>
<path d="M4177 3709 c7 -7 15 -10 18 -7 3 3 -2 9 -12 12 -14 6 -15 5 -6 -5z"/>
<path d="M4310 3605 c19 -14 36 -25 39 -25 10 0 -53 49 -63 50 -6 0 5 -11 24
-25z"/>
<path d="M1699 3533 l-34 -38 40 35 c22 19 42 36 44 38 2 1 0 2 -5 2 -6 0 -26
-17 -45 -37z"/>
<path d="M4456 3476 c22 -24 46 -47 54 -50 8 -4 -7 16 -35 43 -61 63 -71 66
-19 7z"/>
<path d="M1560 3395 c-18 -19 -32 -36 -29 -38 2 -2 19 14 38 35 42 48 36 50
-9 3z"/>
<path d="M4591 3333 c7 -12 15 -20 18 -17 3 2 -3 12 -13 22 -17 16 -18 16 -5
-5z"/>
<path d="M1341 3103 c-10 -26 -10 -27 4 -9 8 11 15 23 15 28 0 15 -7 8 -19
-19z"/>
<path d="M1270 2980 c-6 -11 -8 -20 -6 -20 3 0 10 9 16 20 6 11 8 20 6 20 -3
0 -10 -9 -16 -20z"/>
<path d="M4840 2950 c6 -11 13 -20 16 -20 2 0 0 9 -6 20 -6 11 -13 20 -16 20
-2 0 0 -9 6 -20z"/>
<path d="M4860 2911 c0 -6 4 -13 10 -16 6 -3 7 1 4 9 -7 18 -14 21 -14 7z"/>
<path d="M4880 2871 c0 -6 4 -13 10 -16 6 -3 7 1 4 9 -7 18 -14 21 -14 7z"/>
<path d="M4920 2771 c0 -6 4 -13 10 -16 6 -3 7 1 4 9 -7 18 -14 21 -14 7z"/>
<path d="M4946 2707 c3 -10 9 -15 12 -12 3 3 0 11 -7 18 -10 9 -11 8 -5 -6z"/>
<path d="M1146 2695 c-9 -26 -7 -32 5 -12 6 10 9 21 6 23 -2 3 -7 -2 -11 -11z"/>
<path d="M4961 2665 c1 -19 18 -51 18 -35 0 8 -4 22 -9 30 -5 8 -9 11 -9 5z"/>
<path d="M1126 2625 c-9 -26 -7 -32 5 -12 6 10 9 21 6 23 -2 3 -7 -2 -11 -11z"/>
<path d="M1096 2525 c-9 -26 -7 -32 5 -12 6 10 9 21 6 23 -2 3 -7 -2 -11 -11z"/>
<path d="M4394 2516 c-4 -10 -2 -22 4 -28 8 -8 13 -7 18 6 4 10 2 22 -4 28 -8
8 -13 7 -18 -6z m13 -18 c-3 -8 -6 -5 -6 6 -1 11 2 17 5 13 3 -3 4 -12 1 -19z"/>
<path d="M1780 2498 c-52 -15 -86 -43 -109 -91 -45 -92 -11 -182 86 -231 50
-25 290 -23 341 3 46 23 67 46 87 94 20 49 19 90 -5 137 -23 45 -60 73 -115
89 -49 13 -237 13 -285 -1z m298 -68 c38 -24 66 -81 57 -118 -3 -14 -21 -40
-40 -59 l-33 -33 -131 0 c-138 0 -165 6 -194 46 -30 41 -32 84 -5 124 36 53
58 60 193 60 103 0 125 -3 153 -20z"/>
<path d="M2240 2335 l0 -175 30 0 30 0 0 145 0 145 120 0 c107 0 122 -2 140
-20 27 -27 26 -65 -2 -84 -16 -12 -48 -16 -118 -16 l-95 -1 35 -31 c19 -17 62
-55 94 -84 53 -48 65 -54 103 -54 24 0 43 2 43 4 0 2 -27 27 -60 54 l-60 50
42 7 c62 11 98 51 98 110 0 26 -7 57 -17 72 -29 44 -68 53 -233 53 l-150 0 0
-175z"/>
<path d="M2874 2502 c-11 -7 -76 -104 -172 -259 l-51 -83 38 0 c38 0 38 0 122
135 46 74 86 135 89 135 6 0 90 -134 90 -144 0 -3 -38 -6 -85 -6 l-84 0 17
-30 c17 -30 17 -30 109 -30 91 0 92 0 110 -30 14 -25 24 -30 56 -30 l38 0 -18
28 c-10 15 -22 35 -28 44 -34 59 -160 251 -172 263 -16 16 -41 19 -59 7z"/>
<path d="M3241 2495 c-123 -39 -162 -185 -73 -278 44 -47 82 -57 212 -57 114
0 118 1 134 25 9 13 16 27 16 30 0 3 -59 5 -130 5 -150 0 -178 9 -205 66 -22
47 -13 92 26 130 30 28 33 29 153 32 l123 4 17 29 17 29 -123 -1 c-74 0 -140
-6 -167 -14z"/>
<path d="M3570 2347 c0 -113 4 -167 12 -175 8 -8 60 -12 169 -12 156 0 157 0
173 25 9 13 16 27 16 30 0 3 -67 5 -150 5 l-150 0 0 145 0 145 -35 0 -35 0 0
-163z"/>
<path d="M4060 2498 c-84 -24 -125 -85 -118 -177 5 -70 32 -111 91 -140 37
-18 62 -21 163 -21 l119 0 17 30 17 30 -132 0 c-113 0 -137 3 -164 20 -17 10
-37 28 -43 39 -11 21 -9 21 134 21 l145 0 16 30 16 30 -156 0 c-131 0 -155 2
-155 15 0 20 34 53 66 65 14 6 72 10 129 10 98 0 103 1 119 25 9 13 16 27 16
30 0 9 -244 4 -280 -7z"/>
<path d="M5011 2474 c0 -11 3 -14 6 -6 3 7 2 16 -1 19 -3 4 -6 -2 -5 -13z"/>
<path d="M5021 2434 c0 -11 3 -14 6 -6 3 7 2 16 -1 19 -3 4 -6 -2 -5 -13z"/>
<path d="M1071 2404 c0 -11 3 -14 6 -6 3 7 2 16 -1 19 -3 4 -6 -2 -5 -13z"/>
<path d="M1331 2364 c0 -11 3 -14 6 -6 3 7 2 16 -1 19 -3 4 -6 -2 -5 -13z"/>
<path d="M5031 2364 c0 -11 3 -14 6 -6 3 7 2 16 -1 19 -3 4 -6 -2 -5 -13z"/>
<path d="M1061 2324 c0 -11 3 -14 6 -6 3 7 2 16 -1 19 -3 4 -6 -2 -5 -13z"/>
<path d="M5042 2320 c0 -14 2 -19 5 -12 2 6 2 18 0 25 -3 6 -5 1 -5 -13z"/>
<path d="M4782 2280 c0 -14 2 -19 5 -12 2 6 2 18 0 25 -3 6 -5 1 -5 -13z"/>
<path d="M1052 2265 c0 -16 2 -22 5 -12 2 9 2 23 0 30 -3 6 -5 -1 -5 -18z"/>
<path d="M1312 2215 c0 -16 2 -22 5 -12 2 9 2 23 0 30 -3 6 -5 -1 -5 -18z"/>
<path d="M5052 2195 c0 -16 2 -22 5 -12 2 9 2 23 0 30 -3 6 -5 -1 -5 -18z"/>
<path d="M1043 2050 c0 -36 2 -50 4 -32 2 17 2 47 0 65 -2 17 -4 3 -4 -33z"/>
<path d="M5058 2078 c-2 -18 0 -46 3 -63 5 -22 7 -13 8 33 1 67 -4 83 -11 30z"/>
<path d="M1650 1980 c0 -7 458 -10 1355 -10 897 0 1355 3 1355 10 0 7 -458 10
-1355 10 -897 0 -1355 -3 -1355 -10z"/>
<path d="M5053 1910 c0 -25 2 -35 4 -22 2 12 2 32 0 45 -2 12 -4 2 -4 -23z"/>
<path d="M1312 1875 c0 -16 2 -22 5 -12 2 9 2 23 0 30 -3 6 -5 -1 -5 -18z"/>
<path d="M1052 1830 c0 -14 4 -38 8 -55 7 -27 8 -27 8 -5 0 14 -4 39 -8 55 -7
27 -8 27 -8 5z"/>
<path d="M4781 1814 c0 -11 3 -14 6 -6 3 7 2 16 -1 19 -3 4 -6 -2 -5 -13z"/>
<path d="M2432 1783 c-39 -19 -62 -59 -62 -108 0 -72 41 -115 110 -115 69 0
110 43 110 114 0 52 -16 84 -52 106 -40 24 -62 25 -106 3z m90 -50 c23 -21 24
-89 1 -115 -39 -43 -103 -8 -103 57 0 64 58 98 102 58z"/>
<path d="M3264 1786 c-17 -8 -34 -21 -38 -31 -18 -47 3 -75 72 -96 72 -21 83
-59 16 -59 -23 0 -38 6 -46 20 -7 11 -23 20 -34 20 -18 0 -21 -4 -17 -22 9
-36 43 -58 93 -58 53 0 85 19 94 55 10 40 -9 62 -71 82 -65 22 -77 46 -25 51
22 2 34 -2 38 -12 3 -9 17 -16 31 -16 19 0 24 4 19 16 -3 9 -6 20 -6 25 0 11
-61 39 -82 39 -7 -1 -27 -7 -44 -14z"/>
<path d="M3505 1786 c-56 -24 -82 -83 -65 -147 14 -53 51 -79 110 -79 42 0 52
4 79 35 22 26 31 46 31 71 0 52 -26 100 -65 118 -39 19 -51 19 -90 2z m86 -53
c22 -25 18 -102 -5 -119 -47 -34 -96 -1 -96 65 0 19 7 43 17 53 20 22 66 23
84 1z"/>
<path d="M1972 1678 l3 -113 28 -3 c25 -3 27 -1 27 36 l0 39 50 7 c55 7 80 32
80 77 0 46 -41 69 -122 69 l-69 0 3 -112z m132 49 c9 -15 7 -21 -8 -33 -11 -8
-30 -14 -43 -14 -20 0 -23 5 -23 36 0 34 1 35 31 32 18 -2 37 -11 43 -21z"/>
<path d="M2180 1675 l0 -115 85 0 c78 0 85 2 85 20 0 18 -7 20 -60 20 l-60 0
0 30 c0 30 1 30 55 30 48 0 55 2 55 20 0 18 -7 20 -55 20 -52 0 -55 1 -55 25
0 24 3 25 60 25 53 0 60 2 60 20 0 18 -7 20 -85 20 l-85 0 0 -115z"/>
<path d="M2622 1678 l3 -113 28 -3 c25 -3 27 -1 27 36 l0 39 50 7 c78 10 106
71 55 121 -21 22 -33 25 -95 25 l-71 0 3 -112z m134 50 c8 -25 -17 -48 -53
-48 -20 0 -23 5 -23 35 0 33 2 35 34 35 27 0 36 -5 42 -22z"/>
<path d="M2840 1675 l0 -115 80 0 c73 0 80 2 80 20 0 18 -7 20 -55 20 l-55 0
0 95 c0 95 0 95 -25 95 l-25 0 0 -115z"/>
<path d="M3030 1675 l0 -115 85 0 c78 0 85 2 85 20 0 18 -7 20 -60 20 l-60 0
0 30 c0 30 1 30 55 30 48 0 55 2 55 20 0 18 -7 20 -55 20 -52 0 -55 1 -55 25
0 24 3 25 60 25 53 0 60 2 60 20 0 18 -7 20 -85 20 l-85 0 0 -115z"/>
<path d="M3700 1675 l0 -115 24 0 c23 0 25 5 28 48 l3 47 48 3 c33 2 47 7 47
18 0 10 -13 14 -50 14 -49 0 -50 1 -50 30 0 30 1 30 55 30 48 0 55 2 55 20 0
18 -7 20 -80 20 l-80 0 0 -115z"/>
<path d="M3880 1770 c0 -16 7 -20 35 -20 l35 0 0 -95 c0 -95 0 -95 25 -95 25
0 25 0 25 95 l0 95 35 0 c28 0 35 4 35 20 0 19 -7 20 -95 20 -88 0 -95 -1 -95
-20z"/>
<path d="M5042 1770 c0 -14 2 -19 5 -12 2 6 2 18 0 25 -3 6 -5 1 -5 -13z"/>
<path d="M1331 1724 c0 -11 3 -14 6 -6 3 7 2 16 -1 19 -3 4 -6 -2 -5 -13z"/>
<path d="M5031 1724 c0 -11 3 -14 6 -6 3 7 2 16 -1 19 -3 4 -6 -2 -5 -13z"/>
<path d="M1071 1690 c0 -8 4 -24 9 -35 5 -13 9 -14 9 -5 0 8 -4 24 -9 35 -5
13 -9 14 -9 5z"/>
<path d="M5013 1634 c-6 -27 -10 -51 -8 -52 6 -6 27 78 23 90 -2 6 -9 -11 -15
-38z"/>
<path d="M1101 1565 c1 -19 18 -51 18 -35 0 8 -4 22 -9 30 -5 8 -9 11 -9 5z"/>
<path d="M4986 1525 c-9 -26 -7 -32 5 -12 6 10 9 21 6 23 -2 3 -7 -2 -11 -11z"/>
<path d="M1140 1425 c0 -5 5 -17 10 -25 5 -8 10 -10 10 -5 0 6 -5 17 -10 25
-5 8 -10 11 -10 5z"/>
<path d="M4946 1395 c-9 -26 -7 -32 5 -12 6 10 9 21 6 23 -2 3 -7 -2 -11 -11z"/>
<path d="M1160 1365 c0 -5 5 -17 10 -25 5 -8 10 -10 10 -5 0 6 -5 17 -10 25
-5 8 -10 11 -10 5z"/>
<path d="M4926 1335 c-9 -26 -7 -32 5 -12 6 10 9 21 6 23 -2 3 -7 -2 -11 -11z"/>
<path d="M1186 1297 c3 -10 9 -15 12 -12 3 3 0 11 -7 18 -10 9 -11 8 -5 -6z"/>
<path d="M1206 1247 c3 -10 9 -15 12 -12 3 3 0 11 -7 18 -10 9 -11 8 -5 -6z"/>
<path d="M4886 1233 c-6 -14 -5 -15 5 -6 7 7 10 15 7 18 -3 3 -9 -2 -12 -12z"/>
<path d="M1220 1211 c0 -6 4 -13 10 -16 6 -3 7 1 4 9 -7 18 -14 21 -14 7z"/>
<path d="M1240 1171 c0 -6 4 -13 10 -16 6 -3 7 1 4 9 -7 18 -14 21 -14 7z"/>
<path d="M4816 1093 c-6 -14 -5 -15 5 -6 7 7 10 15 7 18 -3 3 -9 -2 -12 -12z"/>
<path d="M4676 872 l-19 -27 24 22 c12 12 21 24 18 27 -2 2 -13 -8 -23 -22z"/>
<path d="M4636 824 c-9 -24 -2 -26 12 -4 7 11 8 20 3 20 -5 0 -12 -7 -15 -16z"/>
<path d="M1625 632 c47 -49 55 -57 55 -48 0 5 -53 58 -81 81 -13 11 -2 -4 26
-33z"/>
<path d="M4465 630 c-10 -11 -15 -20 -11 -20 11 0 39 30 34 36 -3 2 -13 -5
-23 -16z"/>
<path d="M1750 517 c0 -3 17 -17 37 -33 20 -15 33 -23 29 -16 -8 13 -66 56
-66 49z"/>
<path d="M4260 449 c0 -5 5 -7 10 -4 6 3 10 8 10 11 0 2 -4 4 -10 4 -5 0 -10
-5 -10 -11z"/>
<path d="M4221 420 c-13 -11 -19 -20 -14 -20 6 0 18 9 28 20 23 25 17 25 -14
0z"/>
<path d="M2407 419 c7 -7 15 -10 18 -7 3 3 -2 9 -12 12 -14 6 -15 5 -6 -5z"/>
<path d="M2590 360 c8 -5 20 -10 25 -10 6 0 3 5 -5 10 -8 5 -19 10 -25 10 -5
0 -3 -5 5 -10z"/>
<path d="M2808 313 c6 -2 18 -2 25 0 6 3 1 5 -13 5 -14 0 -19 -2 -12 -5z"/>
<path d="M3278 313 c7 -3 16 -2 19 1 4 3 -2 6 -13 5 -11 0 -14 -3 -6 -6z"/>
<path d="M4000 280 c-9 -6 -10 -10 -3 -10 6 0 15 5 18 10 8 12 4 12 -15 0z"/>
<path d="M2130 266 c0 -3 9 -10 20 -16 11 -6 20 -8 20 -6 0 3 -9 10 -20 16
-11 6 -20 8 -20 6z"/>
<path d="M2180 236 c0 -2 7 -7 16 -10 8 -3 12 -2 9 4 -6 10 -25 14 -25 6z"/>
<path d="M2220 216 c0 -2 7 -7 16 -10 8 -3 12 -2 9 4 -6 10 -25 14 -25 6z"/>
<path d="M3860 210 c-9 -6 -10 -10 -3 -10 6 0 15 5 18 10 8 12 4 12 -15 0z"/>
<path d="M2278 188 c5 -5 16 -8 23 -6 8 3 3 7 -10 11 -17 4 -21 3 -13 -5z"/>
<path d="M2320 176 c0 -2 7 -7 16 -10 8 -3 12 -2 9 4 -6 10 -25 14 -25 6z"/>
<path d="M3760 170 c-8 -5 -10 -10 -5 -10 6 0 17 5 25 10 8 5 11 10 5 10 -5 0
-17 -5 -25 -10z"/>
<path d="M2387 149 c7 -7 15 -10 18 -7 3 3 -2 9 -12 12 -14 6 -15 5 -6 -5z"/>
<path d="M3700 150 c-8 -5 -10 -10 -5 -10 6 0 17 5 25 10 8 5 11 10 5 10 -5 0
-17 -5 -25 -10z"/>
<path d="M2440 130 c8 -5 22 -9 30 -9 10 0 8 3 -5 9 -27 12 -43 12 -25 0z"/>
<path d="M3570 110 c-8 -5 -10 -10 -5 -10 6 0 17 5 25 10 8 5 11 10 5 10 -5 0
-17 -5 -25 -10z"/>
<path d="M3485 90 c-13 -6 -15 -9 -5 -9 8 0 22 4 30 9 18 12 2 12 -25 0z"/>
<path d="M2618 83 c7 -3 16 -2 19 1 4 3 -2 6 -13 5 -11 0 -14 -3 -6 -6z"/>
<path d="M3438 73 c7 -3 16 -2 19 1 4 3 -2 6 -13 5 -11 0 -14 -3 -6 -6z"/>
<path d="M2718 63 c6 -2 18 -2 25 0 6 3 1 5 -13 5 -14 0 -19 -2 -12 -5z"/>
<path d="M3368 63 c7 -3 16 -2 19 1 4 3 -2 6 -13 5 -11 0 -14 -3 -6 -6z"/>
<path d="M2768 53 c6 -2 18 -2 25 0 6 3 1 5 -13 5 -14 0 -19 -2 -12 -5z"/>
<path d="M3318 53 c6 -2 18 -2 25 0 6 3 1 5 -13 5 -14 0 -19 -2 -12 -5z"/>
<path d="M2898 43 c12 -2 30 -2 40 0 9 3 -1 5 -23 4 -22 0 -30 -2 -17 -4z"/>
<path d="M3178 43 c12 -2 30 -2 40 0 9 3 -1 5 -23 4 -22 0 -30 -2 -17 -4z"/>
<path d="M3018 33 c17 -2 47 -2 65 0 17 2 3 4 -33 4 -36 0 -50 -2 -32 -4z"/>
</g>
</svg>
